<?xml version="1.0" standalone="no"?>
<!DOCTYPE svg PUBLIC "-//W3C//DTD SVG 20010904//EN"
 "http://www.w3.org/TR/2001/REC-SVG-20010904/DTD/svg10.dtd">
<svg version="1.0" xmlns="http://www.w3.org/2000/svg"
 width="654.000000pt" height="654.000000pt" viewBox="0 0 654.000000 654.000000"
 preserveAspectRatio="xMidYMid meet">
<metadata>
Created by potrace 1.14, written by Peter Selinger 2001-2017
</metadata>
<g transform="translate(0.000000,654.000000) scale(0.100000,-0.100000)"
fill="#000000" stroke="none">
<path d="M1723 4241 c-854 -570 -1551 -1039 -1550 -1043 1 -5 699 -473 1552
-1041 l1550 -1034 1553 1035 c854 570 1551 1039 1550 1044 -3 6 -3046 2045
-3088 2068 -11 6 -447 -281 -1567 -1029z m2537 289 c531 -354 1196 -798 1478
-987 l513 -345 -1482 -990 c-839 -559 -1490 -987 -1498 -985 -21 5 -2955 1966
-2959 1976 -4 13 2951 1982 2968 1978 9 -2 450 -293 980 -647z"/>
<path d="M2407 4160 c-103 -26 -157 -79 -157 -153 0 -78 53 -119 119 -91 31
13 49 50 37 80 -8 21 -26 8 -26 -20 0 -32 -29 -56 -57 -46 -41 16 -42 93 -1
145 64 81 226 87 286 10 34 -43 31 -113 -7 -149 -26 -25 -33 -27 -70 -19 l-41
8 35 52 c19 28 44 55 56 58 39 13 5 24 -38 13 -56 -14 -93 -56 -172 -193 -34
-61 -71 -120 -81 -133 l-19 -23 -50 27 c-41 21 -58 25 -91 19 -68 -11 -90 -66
-45 -110 19 -20 34 -25 74 -25 28 0 69 7 91 16 37 15 43 15 81 0 23 -9 71 -17
110 -17 81 -1 139 26 176 80 l23 34 0 -37 c0 -48 22 -56 72 -27 l39 22 6 -20
c7 -28 41 -27 86 3 l36 25 3 -22 c5 -34 41 -33 80 2 l34 29 16 -29 c22 -37 56
-38 127 -3 37 19 68 46 107 95 30 38 57 69 60 69 8 0 -8 -104 -22 -138 -15
-37 -41 -39 -36 -4 2 12 -1 22 -7 22 -16 0 -23 -19 -17 -46 8 -31 41 -32 87
-1 46 31 59 61 59 139 0 53 4 69 18 77 31 18 -12 24 -46 7 -29 -15 -122 -113
-122 -128 0 -17 -95 -78 -121 -78 -48 0 -35 42 16 54 42 10 100 52 114 82 16
36 -1 64 -40 64 -61 0 -130 -52 -193 -147 -29 -43 -46 -54 -46 -30 0 7 20 45
45 85 25 40 45 77 45 82 0 6 -13 10 -29 10 -25 0 -35 -11 -80 -80 -47 -72 -83
-110 -103 -110 -15 0 -8 17 42 99 28 45 50 84 50 87 0 2 -13 4 -30 4 -25 0
-36 -10 -79 -72 -27 -40 -60 -84 -75 -97 -55 -52 -26 14 78 172 l103 157 -37
0 c-37 0 -37 -1 -136 -155 l-99 -156 -5 49 c-3 26 -13 60 -23 75 l-17 27 34
14 c108 45 81 197 -46 250 -48 20 -133 28 -181 16z m151 -308 c31 -40 -5 -146
-63 -182 -36 -22 -88 -27 -144 -15 l-32 7 34 38 c19 20 47 59 62 86 55 97 51
93 92 87 21 -3 44 -12 51 -21z m636 -39 c-20 -27 -91 -70 -100 -61 -2 3 18 29
46 59 39 41 53 50 62 41 9 -9 8 -18 -8 -39z m-980 -131 c29 -14 29 -15 10 -29
-45 -33 -115 -26 -122 12 -9 43 45 51 112 17z"/>
<path d="M4745 3866 c-37 -16 -70 -52 -84 -89 -27 -71 -2 -154 75 -243 61 -72
94 -132 94 -174 0 -41 -7 -53 -37 -69 -33 -17 -56 -14 -97 14 l-36 24 0 -68
c0 -68 0 -69 31 -80 78 -27 187 -1 226 55 23 32 43 95 43 135 0 58 -31 126
-98 210 -38 47 -75 101 -82 119 -13 31 -12 34 9 51 28 23 70 24 97 4 31 -23
34 -19 34 49 0 58 -2 64 -22 70 -39 10 -122 6 -153 -8z"/>
<path d="M4317 3822 c-83 -14 -88 -16 -81 -36 12 -34 17 -590 5 -633 -6 -20
-9 -38 -7 -40 2 -2 36 2 75 8 67 11 72 14 66 33 -4 12 -10 76 -12 144 -5 114
-4 122 14 122 15 0 26 -24 59 -132 l41 -133 69 4 c38 1 70 4 72 6 2 1 -6 18
-16 36 -11 19 -37 85 -57 148 l-38 115 21 16 c43 35 67 100 67 180 0 91 -20
131 -80 160 -48 23 -77 23 -198 2z m137 -124 c9 -13 16 -43 16 -68 0 -54 -26
-86 -78 -96 l-32 -6 0 96 0 96 39 0 c30 0 44 -6 55 -22z"/>
<path d="M4020 3766 c-168 -36 -162 -33 -150 -57 7 -13 10 -127 8 -344 -2
-253 0 -325 9 -325 13 0 246 47 276 56 14 4 17 17 17 75 l0 70 -27 -20 c-16
-11 -48 -25 -73 -30 -84 -19 -80 -24 -80 93 l0 104 31 6 c17 3 42 3 55 0 24
-6 24 -5 24 65 0 39 -2 71 -5 71 -3 0 -16 -6 -28 -14 -12 -7 -34 -16 -49 -20
l-28 -6 0 78 0 79 55 12 c31 7 69 10 85 6 l30 -7 0 66 c0 78 9 75 -150 42z"/>
<path d="M3717 3703 c-56 -13 -67 -19 -60 -32 13 -27 15 -638 2 -662 -10 -20
-9 -21 12 -16 13 3 50 11 82 18 47 10 56 15 50 28 -11 22 -10 641 1 664 10 21
5 21 -87 0z"/>
<path d="M3387 3619 c-38 -9 -71 -20 -74 -23 -3 -3 0 -19 6 -37 15 -44 15
-574 0 -618 -6 -18 -9 -34 -7 -36 2 -3 56 9 119 26 63 16 131 35 152 40 l37
10 0 69 c0 39 -3 70 -7 70 -4 0 -16 -9 -27 -19 -18 -16 -112 -51 -138 -51 -12
0 -10 528 3 551 17 33 7 36 -64 18z"/>
<path d="M3037 3525 c-77 -21 -79 -22 -67 -42 9 -14 -6 -95 -60 -348 -39 -181
-76 -335 -82 -342 -20 -24 1 -26 67 -7 l66 19 4 60 c2 33 6 67 9 75 4 9 36 23
73 33 73 19 81 16 85 -33 5 -60 6 -75 7 -81 1 -6 130 26 138 34 2 3 -3 17 -12
33 -8 16 -45 153 -81 304 -35 151 -67 283 -70 293 -6 20 -12 20 -77 2z m38
-324 c14 -56 25 -106 25 -110 0 -8 -92 -32 -99 -26 -2 2 7 58 20 124 12 66 24
119 26 117 2 -2 15 -49 28 -105z"/>
<path d="M1832 3499 c-104 -18 -200 -86 -256 -182 -14 -24 -36 -82 -47 -128
-18 -70 -21 -102 -16 -204 9 -200 58 -327 172 -440 114 -115 214 -151 389
-143 77 4 112 10 149 28 58 28 97 72 97 111 0 16 -2 29 -4 29 -2 0 -30 -12
-62 -27 -78 -35 -195 -43 -280 -18 -139 40 -244 153 -296 320 -28 88 -35 265
-15 336 31 105 104 177 190 186 65 8 95 -3 117 -40 32 -51 26 -103 -14 -143
-44 -44 -85 -46 -116 -7 l-22 28 -19 -24 c-48 -59 -8 -139 74 -148 156 -18
286 166 237 336 -28 97 -147 153 -278 130z"/>
<path d="M2855 3474 c-5 -1 -36 -10 -67 -19 -55 -15 -58 -17 -58 -46 0 -39
-60 -361 -70 -372 -7 -8 -73 291 -73 336 0 15 -5 27 -10 27 -12 0 -131 -31
-135 -35 -2 -2 3 -16 11 -32 7 -15 45 -156 82 -313 38 -157 72 -290 77 -297 7
-9 19 -9 50 1 l42 12 72 334 c40 184 77 350 84 368 12 35 12 41 -5 36z"/>
<path d="M2243 3324 c-60 -15 -62 -16 -57 -42 6 -30 -117 -609 -141 -659 -14
-32 -14 -33 10 -33 13 0 47 5 75 11 47 10 51 13 46 34 -3 13 -1 46 4 73 l11
49 57 12 c31 7 64 14 73 17 13 3 19 -8 27 -51 6 -30 8 -63 5 -72 -7 -17 11
-16 99 8 43 11 43 13 25 60 -8 19 -45 163 -82 322 -38 158 -74 287 -79 286 -6
0 -39 -7 -73 -15z m74 -440 c-5 -4 -102 -22 -105 -20 -1 2 9 56 23 120 14 65
25 121 26 124 0 4 13 -45 29 -108 15 -63 27 -116 27 -116z"/>
<path d="M4685 2875 l0 -115 48 0 c43 0 47 2 47 24 0 19 -4 22 -25 18 l-25 -4
0 96 c0 93 -1 96 -22 96 -23 0 -23 -2 -23 -115z"/>
<path d="M4804 2974 c3 -9 6 -53 6 -99 0 -63 4 -88 16 -99 21 -22 60 -20 84 4
17 17 20 33 20 115 0 88 -1 95 -20 95 -18 0 -20 -7 -20 -79 0 -88 -5 -111 -26
-111 -11 0 -14 20 -14 95 l0 95 -26 0 c-20 0 -25 -4 -20 -16z"/>
<path d="M4540 2865 c0 -125 -2 -122 61 -105 47 13 69 57 49 98 -7 15 -12 42
-11 60 3 44 -14 62 -60 62 l-39 0 0 -115z m70 66 c0 -17 -12 -41 -21 -41 -5 0
-9 11 -9 25 0 16 6 25 15 25 8 0 15 -4 15 -9z m-1 -85 c9 -11 10 -20 1 -35
-16 -32 -30 -25 -30 14 0 37 10 44 29 21z"/>
<path d="M4960 2871 l0 -108 31 -7 c54 -11 69 -8 69 14 0 16 -7 20 -30 20 -28
0 -30 3 -30 36 0 31 3 35 20 29 15 -5 20 -2 20 13 0 11 -9 22 -20 25 -12 3
-20 14 -20 27 0 20 4 22 30 17 27 -6 30 -4 30 18 0 23 -3 25 -50 25 l-50 0 0
-109z"/>
<path d="M4393 2959 c-20 -6 -38 -21 -48 -39 -18 -35 -19 -116 -2 -150 11 -21
20 -25 57 -25 39 0 45 3 48 23 3 20 1 22 -16 13 -30 -16 -62 12 -62 55 0 50
26 97 51 91 15 -4 19 0 19 19 0 26 0 26 -47 13z"/>
<path d="M5108 2963 c-31 -8 -31 -41 1 -98 17 -30 31 -62 31 -70 0 -18 -21
-20 -39 -2 -10 10 -12 6 -9 -18 2 -22 9 -31 25 -33 66 -10 83 53 34 127 -32
47 -32 66 0 56 14 -5 19 -2 19 13 0 11 -7 23 -16 26 -17 6 -19 6 -46 -1z"/>
<path d="M4270 2942 c-12 -6 -15 -29 -15 -115 0 -104 1 -107 23 -107 22 0 22
2 22 115 0 63 -3 115 -7 114 -5 0 -15 -3 -23 -7z"/>
<path d="M4168 2928 c-52 -9 -58 -13 -58 -34 0 -22 2 -23 21 -14 20 11 20 10
17 -85 -3 -91 -2 -96 17 -93 18 3 20 12 23 102 3 92 4 98 22 93 16 -4 20 0 20
19 0 13 -1 23 -2 23 -2 -1 -29 -6 -60 -11z"/>
<path d="M4030 2897 c-36 -18 -39 -65 -5 -105 33 -39 31 -78 -3 -75 -18 2 -22
-2 -22 -23 0 -23 3 -25 28 -19 66 16 84 81 38 136 -31 37 -33 59 -6 59 13 0
20 7 20 20 0 23 -14 25 -50 7z"/>
<path d="M3945 2882 c-18 -6 -20 -16 -20 -97 0 -79 -2 -90 -18 -93 -17 -3 -18
4 -15 87 2 73 0 90 -10 86 -8 -3 -18 -5 -23 -5 -10 0 -13 -169 -3 -194 9 -23
66 -20 92 4 20 19 22 31 22 120 0 55 -1 100 -2 99 -2 -1 -12 -4 -23 -7z"/>
<path d="M3476 2830 c-43 -13 -72 -46 -87 -98 -9 -31 -27 -59 -56 -87 -51 -49
-58 -91 -20 -129 22 -22 23 -26 10 -50 -13 -25 -43 -36 -43 -16 0 16 -27 11
-34 -6 -10 -26 12 -56 37 -49 36 11 71 39 88 72 9 18 30 44 47 58 30 25 40 53
25 69 -4 4 -16 -3 -26 -16 l-18 -23 6 40 c8 48 11 52 32 39 23 -14 35 -61 29
-110 -5 -39 -4 -41 19 -36 l24 4 3 174 c2 96 1 174 -2 173 -3 0 -18 -5 -34 -9z
m-6 -105 c0 -52 -1 -54 -22 -46 -24 9 -25 25 -6 74 17 43 28 32 28 -28z m-107
-127 c-7 -41 -20 -57 -29 -35 -5 15 19 67 31 67 2 0 2 -15 -2 -32z"/>
<path d="M3733 2830 c-32 -13 -53 -61 -53 -122 0 -83 36 -117 91 -88 43 23 63
113 38 177 -16 42 -34 50 -76 33z m37 -49 c21 -40 5 -131 -24 -131 -26 0 -36
73 -16 124 11 31 25 33 40 7z"/>
<path d="M3602 2795 c-21 -9 -38 -27 -47 -49 -27 -64 -14 -156 23 -171 26 -10
82 14 82 36 0 22 -11 24 -28 7 -17 -17 -52 18 -52 52 0 60 33 111 61 94 5 -3
9 6 9 20 0 30 -3 30 -48 11z"/>
<path d="M3018 2719 c-10 -5 -18 -21 -18 -34 0 -23 -4 -25 -42 -25 l-43 0 0
-110 0 -109 40 -3 c33 -2 41 -7 43 -25 10 -68 132 -69 147 -2 4 19 13 29 25
29 37 0 48 25 48 107 0 82 -13 113 -48 113 -9 0 -23 15 -31 33 -12 29 -19 32
-59 34 -25 2 -53 -2 -62 -8z m90 -31 c21 -21 13 -28 -33 -28 -43 0 -58 14 -38
33 11 11 58 8 71 -5z m-113 -93 c0 -23 -5 -31 -22 -33 -20 -3 -23 1 -23 33 0
32 3 36 23 33 17 -2 22 -10 22 -33z m112 15 c-4 -16 0 -20 19 -20 17 0 24 6
24 20 0 22 1 23 24 14 19 -7 21 -35 4 -52 -7 -7 -40 -12 -80 -12 l-68 0 0 35
c0 34 1 35 41 35 36 0 41 -2 36 -20z m-107 -110 c0 -25 -4 -30 -25 -30 -21 0
-25 5 -25 30 0 25 4 30 25 30 21 0 25 -5 25 -30z m185 0 c0 -31 -30 -40 -38
-10 -3 12 -13 20 -26 20 -19 0 -20 -3 -11 -20 10 -19 8 -20 -35 -20 -44 0 -45
1 -45 30 l0 31 78 -3 c75 -3 77 -4 77 -28z m-75 -79 c0 -23 -23 -33 -56 -25
-15 4 -24 13 -24 25 0 15 7 19 40 19 33 0 40 -4 40 -19z"/>
</g>
</svg>
